<svg xmlns="http://www.w3.org/2000/svg" xmlns:xlink="http://www.w3.org/1999/xlink" width="60" zoomAndPan="magnify" viewBox="0 0 45 44.999999" height="60" preserveAspectRatio="xMidYMid meet" version="1.0"><defs><clipPath id="id1"><path d="M 8 4.5 L 32 4.5 L 32 20 L 8 20 Z M 8 4.5 " clip-rule="nonzero"/></clipPath><clipPath id="id2"><path d="M 4.5 4.5 L 37 4.5 L 37 40 L 4.5 40 Z M 4.5 4.5 " clip-rule="nonzero"/></clipPath><clipPath id="id3"><path d="M 25 19 L 40.5 19 L 40.5 40 L 25 40 Z M 25 19 " clip-rule="nonzero"/></clipPath><clipPath id="id4"><path d="M 9 16 L 36 16 L 36 40.5 L 9 40.5 Z M 9 16 " clip-rule="nonzero"/></clipPath></defs><g clip-path="url(#id1)"><path fill="#3e721d" d="M 14.316406 19.265625 L 14.257812 19.226562 C 14.179688 19.167969 6.488281 13.328125 9.4375 5.78125 C 9.648438 5.238281 10.261719 4.972656 10.804688 5.183594 C 11.351562 5.394531 11.613281 6.007812 11.402344 6.550781 C 9.035156 12.613281 15.453125 17.484375 15.519531 17.53125 C 15.988281 17.882812 16.085938 18.542969 15.734375 19.011719 C 15.402344 19.457031 14.78125 19.566406 14.316406 19.265625 Z M 29.917969 18.828125 L 29.859375 18.785156 C 29.78125 18.730469 22.085938 12.886719 25.035156 5.34375 C 25.25 4.796875 25.863281 4.53125 26.402344 4.742188 C 26.949219 4.953125 27.214844 5.570312 27.003906 6.109375 C 24.632812 12.175781 31.054688 17.046875 31.121094 17.09375 C 31.585938 17.441406 31.683594 18.101562 31.335938 18.570312 C 31.003906 19.019531 30.382812 19.125 29.917969 18.828125 Z M 29.917969 18.828125 " fill-opacity="1" fill-rule="nonzero"/></g><g clip-path="url(#id2)"><path fill="#3e721d" d="M 15.171875 18.828125 L 15.230469 18.785156 C 15.308594 18.730469 23.003906 12.886719 20.054688 5.34375 C 19.839844 4.796875 19.226562 4.53125 18.6875 4.742188 C 18.140625 4.953125 17.875 5.570312 18.085938 6.109375 C 20.457031 12.175781 14.035156 17.046875 13.96875 17.09375 C 13.503906 17.441406 13.40625 18.101562 13.753906 18.570312 C 14.085938 19.019531 14.707031 19.125 15.171875 18.828125 Z M 5.515625 27.117188 C 5.367188 27.085938 5.222656 27.027344 5.09375 26.933594 C 4.625 26.589844 4.519531 25.929688 4.863281 25.457031 C 9.511719 19.082031 17.863281 19.691406 18.21875 19.71875 C 18.796875 19.769531 19.226562 20.273438 19.183594 20.855469 C 19.136719 21.4375 18.625 21.867188 18.046875 21.824219 C 17.972656 21.816406 10.511719 21.296875 6.570312 26.699219 C 6.320312 27.042969 5.902344 27.191406 5.515625 27.117188 Z M 9.511719 39.761719 C 9.378906 39.832031 9.234375 39.882812 9.074219 39.894531 C 8.492188 39.9375 7.984375 39.507812 7.9375 38.925781 C 7.3125 31.058594 14.042969 26.082031 14.332031 25.871094 C 14.804688 25.535156 15.460938 25.636719 15.804688 26.105469 C 16.148438 26.578125 16.042969 27.238281 15.574219 27.582031 C 15.511719 27.625 9.511719 32.089844 10.042969 38.757812 C 10.078125 39.179688 9.855469 39.566406 9.511719 39.761719 Z M 30.742188 19.265625 L 30.800781 19.226562 C 30.878906 19.167969 38.574219 13.328125 35.625 5.78125 C 35.410156 5.238281 34.800781 4.96875 34.257812 5.183594 C 33.710938 5.390625 33.445312 6.007812 33.65625 6.550781 C 36.027344 12.613281 29.605469 17.484375 29.539062 17.53125 C 29.074219 17.878906 28.976562 18.542969 29.324219 19.011719 C 29.660156 19.457031 30.28125 19.566406 30.742188 19.265625 Z M 30.742188 19.265625 " fill-opacity="1" fill-rule="nonzero"/></g><g clip-path="url(#id3)"><path fill="#3e721d" d="M 39.546875 27.117188 C 39.691406 27.085938 39.835938 27.027344 39.964844 26.933594 C 40.4375 26.589844 40.539062 25.929688 40.195312 25.457031 C 35.546875 19.082031 27.195312 19.691406 26.84375 19.71875 C 26.261719 19.769531 25.832031 20.273438 25.878906 20.855469 C 25.925781 21.4375 26.433594 21.867188 27.015625 21.824219 C 27.089844 21.816406 34.546875 21.296875 38.488281 26.699219 C 38.738281 27.042969 39.15625 27.191406 39.546875 27.117188 Z M 35.546875 39.761719 C 35.679688 39.832031 35.828125 39.882812 35.984375 39.894531 C 36.566406 39.9375 37.074219 39.507812 37.121094 38.925781 C 37.746094 31.058594 31.015625 26.082031 30.730469 25.871094 C 30.253906 25.535156 29.601562 25.636719 29.257812 26.105469 C 28.914062 26.578125 29.019531 27.238281 29.488281 27.582031 C 29.550781 27.625 35.546875 32.089844 35.015625 38.757812 C 34.984375 39.179688 35.203125 39.566406 35.546875 39.761719 Z M 35.546875 39.761719 " fill-opacity="1" fill-rule="nonzero"/></g><path fill="#77b255" d="M 29.140625 11.695312 C 29.074219 8.921875 26.789062 6.664062 22.542969 6.664062 C 18.386719 6.664062 16.011719 8.921875 15.945312 11.695312 C 13.082031 13.582031 11.214844 16.863281 11.214844 21.445312 C 11.214844 29.003906 16.285156 39.308594 22.542969 39.308594 C 28.800781 39.308594 33.871094 29.003906 33.871094 21.445312 C 33.871094 16.863281 32 13.578125 29.140625 11.695312 Z M 29.140625 11.695312 " fill-opacity="1" fill-rule="nonzero"/><path fill="#5c913b" d="M 13.019531 14.691406 C 11.882812 16.476562 11.214844 18.726562 11.214844 21.445312 C 11.214844 29.003906 16.285156 39.308594 22.542969 39.308594 C 28.800781 39.308594 33.871094 29.003906 33.871094 21.445312 C 33.871094 18.722656 33.199219 16.472656 32.0625 14.6875 C 29.523438 14.269531 26.355469 14.054688 22.554688 14.054688 C 18.738281 14.054688 15.5625 14.269531 13.019531 14.691406 Z M 13.019531 14.691406 " fill-opacity="1" fill-rule="nonzero"/><path fill="#3e721d" d="M 15.945312 11.695312 C 15.945312 11.695312 19.023438 10.886719 22.679688 10.886719 C 26.339844 10.886719 29.140625 11.695312 29.140625 11.695312 C 29.140625 11.695312 29.253906 6.664062 22.542969 6.664062 C 15.828125 6.664062 15.945312 11.695312 15.945312 11.695312 Z M 15.945312 11.695312 " fill-opacity="1" fill-rule="nonzero"/><g clip-path="url(#id4)"><path fill="#77b255" d="M 20.65625 40.402344 C 14.578125 39.777344 9.796875 33.125 9.796875 25.011719 C 9.796875 16.898438 14.441406 16.5625 19.378906 16.5625 C 20.890625 16.5625 21.597656 17.175781 21.597656 19.644531 L 21.597656 39.21875 C 21.597656 40.453125 20.964844 40.4375 20.65625 40.402344 Z M 24.242188 40.402344 C 30.320312 39.777344 35.097656 33.125 35.097656 25.011719 C 35.097656 16.898438 30.457031 16.5625 25.519531 16.5625 C 24.003906 16.5625 23.296875 17.175781 23.296875 19.644531 L 23.296875 39.21875 C 23.300781 40.453125 23.929688 40.4375 24.242188 40.402344 Z M 24.242188 40.402344 " fill-opacity="1" fill-rule="nonzero"/></g><path fill="#5c913b" d="M 19.296875 38.738281 C 18.949219 38.738281 18.605469 38.566406 18.40625 38.25 C 12.167969 28.480469 15.042969 17.3125 15.394531 16.070312 C 15.550781 15.511719 16.128906 15.179688 16.695312 15.339844 C 17.257812 15.5 17.582031 16.082031 17.425781 16.644531 C 17.101562 17.789062 14.441406 28.121094 20.183594 37.113281 C 20.496094 37.605469 20.351562 38.257812 19.859375 38.570312 C 19.6875 38.683594 19.488281 38.738281 19.296875 38.738281 Z M 25.613281 38.738281 C 25.417969 38.738281 25.222656 38.683594 25.046875 38.570312 C 24.554688 38.257812 24.410156 37.605469 24.722656 37.113281 C 29.386719 29.808594 28.652344 20.808594 27.480469 16.644531 C 27.324219 16.082031 27.652344 15.5 28.210938 15.339844 C 28.773438 15.1875 29.355469 15.511719 29.511719 16.070312 C 29.863281 17.3125 32.738281 28.480469 26.5 38.25 C 26.300781 38.566406 25.960938 38.738281 25.613281 38.738281 Z M 25.613281 38.738281 " fill-opacity="1" fill-rule="nonzero"/><path fill="#5c913b" d="M 14.105469 14.933594 L 31 14.933594 L 31 18.101562 L 14.105469 18.101562 Z M 14.105469 14.933594 " fill-opacity="1" fill-rule="nonzero"/><path fill="#77b255" d="M 10.335938 20.933594 C 10.804688 19.476562 11.855469 17.933594 13.085938 17.054688 C 14.226562 16.238281 15.316406 16.273438 14.992188 17.761719 C 13.980469 22.371094 9.6875 22.945312 10.335938 20.933594 Z M 17.15625 17.855469 C 17.773438 16.027344 20.941406 15.878906 21.410156 17.925781 C 21.882812 19.972656 20.328125 20.113281 19.058594 20.066406 C 17.789062 20.019531 16.636719 19.382812 17.15625 17.855469 Z M 34.53125 20.933594 C 34.058594 19.476562 33.011719 17.933594 31.78125 17.054688 C 30.636719 16.238281 29.546875 16.273438 29.875 17.761719 C 30.886719 22.371094 35.179688 22.945312 34.53125 20.933594 Z M 27.710938 17.855469 C 27.089844 16.027344 23.921875 15.878906 23.453125 17.925781 C 22.984375 19.972656 24.535156 20.113281 25.804688 20.066406 C 27.074219 20.019531 28.226562 19.382812 27.710938 17.855469 Z M 27.710938 17.855469 " fill-opacity="1" fill-rule="nonzero"/></svg>