<svg xmlns="http://www.w3.org/2000/svg" xmlns:xlink="http://www.w3.org/1999/xlink" width="60" zoomAndPan="magnify" viewBox="0 0 45 44.999999" height="60" preserveAspectRatio="xMidYMid meet" version="1.0"><defs><clipPath id="id1"><path d="M 20.035156 38.527344 L 25.492188 38.527344 L 25.492188 44.015625 L 20.035156 44.015625 Z M 20.035156 38.527344 " clip-rule="nonzero"/></clipPath><clipPath id="id2"><path d="M 36 20 L 42.75 20 L 42.75 23 L 36 23 Z M 36 20 " clip-rule="nonzero"/></clipPath><clipPath id="id3"><path d="M 2.25 20 L 9 20 L 9 23 L 2.25 23 Z M 2.25 20 " clip-rule="nonzero"/></clipPath><clipPath id="id4"><path d="M 21 1.269531 L 24 1.269531 L 24 8 L 21 8 Z M 21 1.269531 " clip-rule="nonzero"/></clipPath></defs><path fill="#ecc10c" d="M 33.007812 21.65625 C 33.007812 15.839844 28.414062 11.125 22.75 11.125 C 17.085938 11.125 12.496094 15.839844 12.496094 21.65625 C 12.496094 24.902344 13.925781 27.804688 16.175781 29.738281 C 16.726562 30.855469 17.273438 32.210938 17.433594 33.417969 C 17.785156 36.066406 22.75 35.769531 22.75 35.769531 C 22.75 35.769531 27.714844 36.066406 28.066406 33.417969 C 28.226562 32.210938 28.777344 30.855469 29.328125 29.738281 C 31.578125 27.804688 33.007812 24.902344 33.007812 21.65625 " fill-opacity="1" fill-rule="nonzero"/><path fill="#f29211" d="M 26.460938 27.808594 C 25.679688 27.808594 25.046875 27.171875 25.046875 26.382812 C 25.046875 25.597656 25.679688 24.960938 26.460938 24.960938 C 27.242188 24.960938 27.875 25.597656 27.875 26.382812 C 27.875 27.171875 27.242188 27.808594 26.460938 27.808594 Z M 24.894531 27.824219 L 24.9375 27.367188 C 25.050781 27.542969 25.191406 27.699219 25.355469 27.824219 Z M 20.148438 27.824219 C 20.304688 27.703125 20.441406 27.554688 20.550781 27.390625 L 20.59375 27.824219 Z M 17.628906 26.382812 C 17.628906 25.597656 18.261719 24.960938 19.042969 24.960938 C 19.824219 24.960938 20.457031 25.597656 20.457031 26.382812 C 20.457031 27.171875 19.824219 27.808594 19.042969 27.808594 C 18.261719 27.808594 17.628906 27.171875 17.628906 26.382812 Z M 26.460938 24.558594 C 25.460938 24.558594 24.648438 25.375 24.648438 26.382812 C 24.648438 26.394531 24.652344 26.402344 24.652344 26.414062 L 24.511719 27.824219 L 20.976562 27.824219 L 20.847656 26.507812 C 20.847656 26.46875 20.851562 26.425781 20.851562 26.382812 C 20.851562 25.375 20.042969 24.558594 19.042969 24.558594 C 18.042969 24.558594 17.230469 25.375 17.230469 26.382812 C 17.230469 27.390625 18.042969 28.207031 19.042969 28.207031 L 20.632812 28.207031 L 21.382812 35.78125 L 21.761719 35.742188 L 21.015625 28.207031 L 24.472656 28.207031 L 23.726562 35.742188 L 24.105469 35.78125 L 24.855469 28.207031 L 26.167969 28.207031 L 26.167969 28.179688 C 26.261719 28.195312 26.359375 28.207031 26.460938 28.207031 C 27.460938 28.207031 28.269531 27.390625 28.269531 26.382812 C 28.269531 25.375 27.460938 24.558594 26.460938 24.558594 " fill-opacity="1" fill-rule="nonzero"/><g clip-path="url(#id1)"><path fill="#32435b" d="M 25.46875 41.257812 C 25.480469 42.765625 24.273438 44.003906 22.773438 44.015625 C 21.273438 44.03125 20.046875 42.816406 20.035156 41.304688 C 20.019531 39.792969 21.226562 38.558594 22.726562 38.546875 C 24.226562 38.53125 25.453125 39.746094 25.46875 41.257812 " fill-opacity="1" fill-rule="nonzero"/></g><path fill="#bdc2c5" d="M 27.015625 35.074219 L 27.015625 41.105469 C 27.015625 41.851562 26.414062 42.457031 25.671875 42.457031 L 19.832031 42.457031 C 19.089844 42.457031 18.488281 41.851562 18.488281 41.105469 L 18.488281 35.074219 L 27.015625 35.074219 " fill-opacity="1" fill-rule="nonzero"/><path fill="#eff4f4" d="M 25.953125 39.898438 L 19.550781 39.898438 C 18.734375 39.898438 18.078125 40.199219 18.078125 40.574219 C 18.078125 40.9375 18.695312 41.230469 19.472656 41.25 C 19.496094 41.25 19.523438 41.25 19.550781 41.25 L 25.953125 41.25 C 25.976562 41.25 26.003906 41.25 26.027344 41.25 C 26.808594 41.230469 27.425781 40.9375 27.425781 40.574219 C 27.425781 40.199219 26.765625 39.898438 25.953125 39.898438 " fill-opacity="1" fill-rule="nonzero"/><path fill="#eff4f4" d="M 25.953125 38.050781 L 19.550781 38.050781 C 18.734375 38.050781 18.078125 38.355469 18.078125 38.730469 C 18.078125 39.089844 18.695312 39.386719 19.472656 39.40625 C 19.496094 39.40625 19.523438 39.40625 19.550781 39.40625 L 25.953125 39.40625 C 25.976562 39.40625 26.003906 39.40625 26.027344 39.40625 C 26.808594 39.386719 27.425781 39.089844 27.425781 38.730469 C 27.425781 38.355469 26.765625 38.050781 25.953125 38.050781 " fill-opacity="1" fill-rule="nonzero"/><path fill="#eff4f4" d="M 25.953125 36.207031 L 19.550781 36.207031 C 18.734375 36.207031 18.078125 36.511719 18.078125 36.882812 C 18.078125 37.246094 18.695312 37.542969 19.472656 37.558594 C 19.496094 37.558594 19.523438 37.558594 19.550781 37.558594 L 25.953125 37.558594 C 25.976562 37.558594 26.003906 37.558594 26.027344 37.558594 C 26.808594 37.542969 27.425781 37.246094 27.425781 36.882812 C 27.425781 36.511719 26.765625 36.207031 25.953125 36.207031 " fill-opacity="1" fill-rule="nonzero"/><path fill="#ecc10c" d="M 37.039062 34.734375 L 34.53125 32.097656 C 34.214844 31.765625 33.652344 31.785156 33.28125 32.144531 C 32.917969 32.492188 32.867188 33.03125 33.152344 33.367188 C 33.164062 33.378906 33.171875 33.390625 33.183594 33.402344 L 35.691406 36.039062 C 35.699219 36.046875 35.710938 36.058594 35.722656 36.066406 C 36.042969 36.371094 36.582031 36.339844 36.941406 35.992188 C 37.316406 35.632812 37.359375 35.070312 37.039062 34.734375 " fill-opacity="1" fill-rule="nonzero"/><g clip-path="url(#id2)"><path fill="#ecc10c" d="M 41.765625 20.753906 L 37.789062 20.898438 C 37.28125 20.914062 36.886719 21.351562 36.90625 21.871094 C 36.921875 22.371094 37.320312 22.769531 37.804688 22.777344 C 37.820312 22.777344 37.835938 22.777344 37.851562 22.777344 L 41.832031 22.636719 C 41.847656 22.636719 41.863281 22.632812 41.878906 22.632812 C 42.363281 22.589844 42.734375 22.164062 42.714844 21.664062 C 42.695312 21.144531 42.273438 20.738281 41.765625 20.753906 " fill-opacity="1" fill-rule="nonzero"/></g><path fill="#ecc10c" d="M 35.601562 7.367188 L 32.660156 10.074219 C 32.289062 10.417969 32.265625 11.007812 32.617188 11.390625 C 32.953125 11.761719 33.511719 11.804688 33.886719 11.492188 C 33.898438 11.484375 33.910156 11.472656 33.921875 11.460938 L 36.859375 8.757812 C 36.875 8.746094 36.882812 8.734375 36.894531 8.722656 C 37.234375 8.375 37.242188 7.8125 36.90625 7.441406 C 36.558594 7.054688 35.972656 7.023438 35.601562 7.367188 " fill-opacity="1" fill-rule="nonzero"/><path fill="#ecc10c" d="M 7.960938 34.800781 L 10.46875 32.164062 C 10.785156 31.828125 11.347656 31.847656 11.71875 32.207031 C 12.082031 32.554688 12.132812 33.09375 11.847656 33.433594 C 11.835938 33.441406 11.828125 33.453125 11.816406 33.464844 L 9.308594 36.101562 C 9.300781 36.113281 9.289062 36.121094 9.28125 36.132812 C 8.957031 36.433594 8.417969 36.40625 8.058594 36.058594 C 7.683594 35.699219 7.640625 35.132812 7.960938 34.800781 " fill-opacity="1" fill-rule="nonzero"/><g clip-path="url(#id3)"><path fill="#ecc10c" d="M 3.234375 20.820312 L 7.210938 20.960938 C 7.71875 20.976562 8.113281 21.414062 8.09375 21.933594 C 8.078125 22.4375 7.679688 22.832031 7.195312 22.839844 C 7.179688 22.839844 7.164062 22.839844 7.148438 22.839844 L 3.167969 22.699219 C 3.152344 22.699219 3.136719 22.699219 3.121094 22.695312 C 2.636719 22.652344 2.265625 22.230469 2.285156 21.726562 C 2.304688 21.207031 2.726562 20.800781 3.234375 20.820312 " fill-opacity="1" fill-rule="nonzero"/></g><path fill="#ecc10c" d="M 9.398438 7.429688 L 12.339844 10.136719 C 12.710938 10.480469 12.734375 11.070312 12.382812 11.453125 C 12.046875 11.824219 11.488281 11.867188 11.113281 11.558594 C 11.101562 11.546875 11.089844 11.535156 11.078125 11.527344 L 8.140625 8.820312 C 8.128906 8.808594 8.117188 8.796875 8.105469 8.789062 C 7.765625 8.441406 7.757812 7.875 8.09375 7.503906 C 8.441406 7.121094 9.027344 7.085938 9.398438 7.429688 " fill-opacity="1" fill-rule="nonzero"/><g clip-path="url(#id4)"><path fill="#ecc10c" d="M 21.785156 2.214844 L 21.847656 6.222656 C 21.855469 6.730469 22.28125 7.136719 22.796875 7.128906 C 23.296875 7.121094 23.699219 6.726562 23.71875 6.238281 C 23.71875 6.222656 23.71875 6.207031 23.71875 6.191406 L 23.652344 2.183594 C 23.652344 2.167969 23.652344 2.152344 23.652344 2.136719 C 23.621094 1.648438 23.203125 1.269531 22.703125 1.277344 C 22.1875 1.285156 21.777344 1.703125 21.785156 2.214844 " fill-opacity="1" fill-rule="nonzero"/></g></svg>