<svg xmlns="http://www.w3.org/2000/svg" xmlns:xlink="http://www.w3.org/1999/xlink" width="60" zoomAndPan="magnify" viewBox="0 0 45 44.999999" height="60" preserveAspectRatio="xMidYMid meet" version="1.0"><defs><clipPath id="id1"><path d="M 2.324219 2.324219 L 42.824219 2.324219 L 42.824219 42.824219 L 2.324219 42.824219 Z M 2.324219 2.324219 " clip-rule="nonzero"/></clipPath></defs><g clip-path="url(#id1)"><path fill="#77b255" d="M 42.824219 38.324219 C 42.824219 40.808594 40.808594 42.824219 38.324219 42.824219 L 6.824219 42.824219 C 4.339844 42.824219 2.324219 40.808594 2.324219 38.324219 L 2.324219 6.824219 C 2.324219 4.339844 4.339844 2.324219 6.824219 2.324219 L 38.324219 2.324219 C 40.808594 2.324219 42.824219 4.339844 42.824219 6.824219 Z M 42.824219 38.324219 " fill-opacity="1" fill-rule="nonzero"/></g><path fill="#ffffff" d="M 35.265625 9.480469 C 33.964844 8.636719 32.222656 9.007812 31.375 10.308594 L 19.128906 29.1875 L 13.46875 23.957031 C 12.328125 22.898438 10.550781 22.972656 9.496094 24.109375 C 8.441406 25.25 8.511719 27.03125 9.652344 28.085938 L 17.761719 35.585938 C 18.300781 36.085938 18.988281 36.332031 19.671875 36.332031 C 20.425781 36.332031 21.394531 36.015625 22.03125 35.050781 C 22.40625 34.480469 36.09375 13.371094 36.09375 13.371094 C 36.9375 12.070312 36.566406 10.328125 35.265625 9.480469 Z M 35.265625 9.480469 " fill-opacity="1" fill-rule="nonzero"/></svg>