<svg xmlns="http://www.w3.org/2000/svg" xmlns:xlink="http://www.w3.org/1999/xlink" width="60" zoomAndPan="magnify" viewBox="0 0 45 44.999999" height="60" preserveAspectRatio="xMidYMid meet" version="1.0"><defs><clipPath id="id1"><path d="M 3.976562 5.054688 L 40.726562 5.054688 L 40.726562 34 L 3.976562 34 Z M 3.976562 5.054688 " clip-rule="nonzero"/></clipPath><clipPath id="id2"><path d="M 5 33 L 12 33 L 12 40.304688 L 5 40.304688 Z M 5 33 " clip-rule="nonzero"/></clipPath></defs><g clip-path="url(#id1)"><path fill="#bdddf4" d="M 40.726562 16.746094 C 40.726562 12.609375 37.4375 9.257812 33.375 9.257812 C 32.152344 9.257812 31 9.570312 29.984375 10.109375 C 27.796875 7.085938 24.285156 5.113281 20.316406 5.113281 C 14.929688 5.113281 10.367188 8.730469 8.847656 13.707031 C 6.058594 14.367188 3.976562 16.910156 3.976562 19.953125 C 3.976562 23.136719 6.257812 25.773438 9.25 26.277344 C 9.476562 30.5 12.898438 33.855469 17.101562 33.855469 C 19.386719 33.855469 21.4375 32.855469 22.875 31.273438 C 24.316406 32.855469 26.367188 33.855469 28.652344 33.855469 C 33 33.855469 36.527344 30.265625 36.527344 25.835938 C 36.527344 25.074219 36.417969 24.34375 36.222656 23.648438 C 38.867188 22.515625 40.726562 19.851562 40.726562 16.746094 Z M 40.726562 16.746094 " fill-opacity="1" fill-rule="nonzero"/></g><g clip-path="url(#id2)"><path fill="#bdddf4" d="M 11.328125 37.0625 C 11.328125 37.488281 11.246094 37.898438 11.085938 38.289062 C 10.925781 38.683594 10.699219 39.03125 10.402344 39.332031 C 10.109375 39.632812 9.769531 39.863281 9.382812 40.027344 C 8.996094 40.1875 8.59375 40.269531 8.175781 40.269531 C 7.757812 40.269531 7.355469 40.1875 6.972656 40.027344 C 6.585938 39.863281 6.246094 39.632812 5.949219 39.332031 C 5.652344 39.03125 5.425781 38.683594 5.265625 38.289062 C 5.105469 37.898438 5.027344 37.488281 5.027344 37.0625 C 5.027344 36.636719 5.105469 36.226562 5.265625 35.835938 C 5.425781 35.441406 5.652344 35.09375 5.949219 34.792969 C 6.246094 34.492188 6.585938 34.261719 6.972656 34.097656 C 7.355469 33.9375 7.757812 33.855469 8.175781 33.855469 C 8.59375 33.855469 8.996094 33.9375 9.382812 34.097656 C 9.769531 34.261719 10.109375 34.492188 10.402344 34.792969 C 10.699219 35.09375 10.925781 35.441406 11.085938 35.835938 C 11.246094 36.226562 11.328125 36.636719 11.328125 37.0625 Z M 11.328125 37.0625 " fill-opacity="1" fill-rule="nonzero"/></g></svg>